<?xml version="1.0"?>
<svg width="640" height="480" xmlns="http://www.w3.org/2000/svg" xmlns:svg="http://www.w3.org/2000/svg">
 <!-- Created with SVG-edit - https://github.com/SVG-Edit/svgedit-->
 <g class="layer">
  <title>Layer 1</title>
  <text fill="#000000" font-family="serif" font-size="24" id="svg_2" stroke="#000000" stroke-dasharray="null" stroke-linecap="null" stroke-linejoin="null" stroke-width="0" text-anchor="middle" transform="matrix(19.4967 0 0 11.8692 -1570.85 -1317.1)" x="88.919102" xml:space="preserve" y="136.21849">J</text>
  <text fill="#000000" font-family="serif" font-size="24" id="svg_3" stroke="#000000" stroke-dasharray="null" stroke-linecap="null" stroke-linejoin="null" stroke-width="0" text-anchor="middle" transform="matrix(10.875 0 0 9.19231 -3154.91 -1732.67)" x="322.626437" xml:space="preserve" y="216.617155">B</text>
  <text fill="#000000" font-family="serif" font-size="24" id="svg_4" stroke="#000000" stroke-dasharray="null" stroke-linecap="null" stroke-linejoin="null" stroke-width="0" text-anchor="middle" transform="matrix(11.1317 0 0 10.9286 -4997.38 -1397.13)" x="495.409422" xml:space="preserve" y="153.922993">L</text>
  <line fill="#000000" id="svg_5" stroke="#000000" stroke-dasharray="null" stroke-linecap="null" stroke-linejoin="null" stroke-width="0" x1="463.5" x2="345.499987" y1="201.5" y2="480.50002"/>
  <line fill="none" id="svg_6" stroke="#000000" stroke-dasharray="null" stroke-linecap="null" stroke-linejoin="null" x1="203.5" x2="344.5" y1="198.5" y2="481.5"/>
  <polygon cx="30.5" cy="26.5" edge="65.861808" fill="none" id="svg_7" orient="x" points="103.52539825439453,52.5 64.81280136108398,105.7833251953125 2.1744985580444336,85.43090438842773 2.1744985580444336,19.569096088409424 64.81280136108398,-0.7833213806152344 103.52539825439453,52.5 " shape="regularPoly" sides="5" stroke="#000000" stroke-width="null" strokeWidth="null" strokecolor="#000000"/>
  <polygon cx="31.5" cy="21.5" edge="38.005848" fill="none" id="svg_8" orient="x" points="96.82970428466797,93.5 74.49042892456055,124.24737548828125 38.34471940994263,112.50292205810547 38.34471940994263,74.49707627296448 74.49042892456055,62.752623558044434 96.82970428466797,93.5 " shape="regularPoly" sides="5" stroke="#000000" stroke-width="null" strokeWidth="null" strokecolor="#000000"/>
  <line fill="none" id="svg_9" stroke="#000000" stroke-dasharray="null" stroke-linecap="null" stroke-linejoin="null" stroke-width="null" x1="345.5" x2="467.500007" y1="480.5" y2="196.500002"/>
  <polygon cx="343.5" cy="135.5" fill="#000000" id="svg_17" orient="point" point="5" points="536.5,95.94463348388672 538.3939208984375,101.39323425292969 544.1610717773438,101.51075744628906 539.564453125,104.99569702148438 541.2348022460938,110.51692199707031 536.5,107.22215270996094 531.76513671875,110.51692199707031 533.435546875,104.99569702148438 528.8389282226562,101.51075744628906 534.6060791015625,101.39323425292969 536.5,95.94463348388672 538.3939208984375,101.39323425292969 " r="8.055364" r2="3.222146" shape="star" stroke="#000000" stroke-width="null" strokeWidth="null" strokecolor="#000000"/>
  <polygon cx="348.5" cy="141.5" fill="#000000" id="svg_14" orient="point" point="5" points="558,61.92881774902344 562.3663330078125,74.490234375 575.6622314453125,74.76118469238281 565.06494140625,82.7955322265625 568.9158935546875,95.52439880371094 558,87.928466796875 547.0841369628906,95.52439880371094 550.9351196289062,82.7955322265625 540.3377685546875,74.76118469238281 553.6336669921875,74.490234375 558,61.92881774902344 562.3663330078125,74.490234375 " r="18.571184" r2="7.428474" shape="star" stroke="#000000" stroke-width="null" strokeWidth="null" strokecolor="#000000"/>
  <path d="m87.010886,268.180689c-1.518746,-1.65866 0.238166,-4.207829 -0.072816,-6.244703c0.130321,-1.939121 0.121134,-3.883474 0.168084,-5.825564c-0.968888,-0.521682 -1.919086,-1.690072 -2.995019,-1.576116c-1.61779,2.115771 -1.439665,4.929744 -2.720342,7.208252c-0.714393,2.184155 -2.444894,4.327819 -4.985404,3.994383c-2.717235,0.042092 -0.914531,-2.183067 0.678587,-2.498861c2.669254,-1.286588 2.494571,-4.673318 2.968481,-7.160745c0.177032,-1.753513 0.558237,-3.540245 0.610596,-5.27431c-1.111219,-2.464472 -2.718304,-4.884658 -2.354324,-7.722161c-0.156738,-3.062656 0.736337,-6.411245 -0.874656,-9.216584c-0.958861,-2.68827 0.666522,-5.438973 0.506162,-8.182824c0.167366,-2.545163 -0.896153,-5.259564 0.207572,-7.680736c2.371848,-2.674039 2.234704,2.28984 3.262812,3.537086c0.972564,2.652927 4.260983,1.853473 6.113129,0.731423c1.240003,-0.707221 2.905897,-4.877233 4.208485,-2.466078c0.581929,2.449254 -1.057284,4.369806 -2.105029,6.350481c-1.182086,3.790637 1.010398,7.590146 3.604185,10.234122c4.276294,4.645106 7.588486,10.275334 9.312364,16.362361c0.226087,2.527577 0.686158,4.861319 2.208469,6.918852c1.756888,1.75121 4.504779,1.667878 6.77119,2.2829c1.587581,0.434765 5.294581,0.886054 4.558088,2.992452c-2.538557,0.42507 -5.181526,0.03978 -7.730549,-0.227765c-2.975667,-0.470026 -6.027509,-1.255067 -8.45297,-3.126555c-2.518681,-1.655289 -3.231889,3.445112 -5.856656,1.834256c-0.377675,-1.326284 1.836114,-3.399093 -1.125885,-3.316505c-1.090015,0.053164 -2.583131,0.313391 -3.40249,0.842197c0.185,2.093756 0.352625,4.194604 0.738489,6.261328c-0.306922,1.034413 -2.437312,2.226256 -3.240552,0.969417z" fill="#000000" id="svg_19" stroke="#000000" stroke-dasharray="null" stroke-linecap="null" stroke-linejoin="null" stroke-width="null"/>
 </g>
</svg>